<svg width="596" height="298" viewBox="0 0 596 298" fill="none" xmlns="http://www.w3.org/2000/svg">
<path fill-rule="evenodd" clip-rule="evenodd" d="M20.4294 132.257C19.7499 139.711 21.5852 146.911 26.9467 153.93C30.2454 158.248 34.2536 161.827 38.8614 164.707C40.1254 157.516 41.8652 150.487 44.1661 143.78C50.3596 125.726 60.8712 109.304 77.8003 98.7843C94.7983 88.2221 116.923 84.4447 144.669 89.1402C161.559 91.9986 174.423 96.4841 183.124 102.796C192.276 109.435 197.194 118.503 196.154 128.93C195.207 138.425 189.478 146.977 182.486 154.006C175.316 161.214 165.779 167.877 155.075 173.577C133.709 184.954 106.231 193.264 80.1159 193.934C72.0939 194.14 64.0144 193.621 56.1923 192.169C55.5628 212.608 58.0743 233.284 61.7606 249.825C62.9619 255.215 59.5658 260.559 54.1752 261.761C48.7846 262.962 43.4408 259.566 42.2394 254.175C38.0427 235.344 35.0482 210.664 36.4415 186.069C26.7221 181.647 17.9935 175.156 11.0533 166.07C2.66479 155.089 -0.624921 142.914 0.512003 130.442C1.62493 118.233 6.90792 106.362 14.5492 95.3468C29.7652 73.4135 55.7318 52.8504 84.749 36.6444C113.89 20.3692 147.073 7.94752 177.537 2.90011C207.474 -2.05992 237.231 -0.277307 257.114 15.0871C268.193 23.648 272.845 35.6007 273.494 48.5275C274.125 61.0783 271.048 74.9974 266.446 89.0368C260.432 107.383 251.012 128.044 241.786 148.28C237.083 158.594 232.431 168.798 228.306 178.528C222.032 193.326 216.821 207.301 213.789 219.934C210.731 232.672 210.114 243.156 212.157 251.344C214.076 259.03 218.456 265.265 227.104 269.885C236.198 274.743 250.417 278 272 278C293.922 278 309.227 276.025 319.736 272.817C330.153 269.637 335.055 265.506 337.503 261.669C339.987 257.774 340.969 252.582 340.291 245.197C339.605 237.71 337.337 229.141 334.423 219.183C333.933 217.509 333.423 215.795 332.903 214.044C327.531 195.983 321.023 174.103 323.676 153.017C325.182 141.041 329.596 129.24 338.481 118.323C347.291 107.497 360.13 97.9877 377.849 89.9024C431.386 65.4727 476.607 65.0858 513.276 78.346C549.69 91.5143 576.491 117.708 594.32 144.453C597.384 149.048 596.142 155.257 591.547 158.321C586.952 161.384 580.743 160.142 577.679 155.547C561.509 131.292 537.81 108.486 506.474 97.154C475.393 85.9142 435.614 85.5273 386.151 108.098C370.45 115.262 360.382 123.096 353.993 130.947C347.679 138.705 344.602 146.912 343.519 155.514C341.42 172.199 346.677 190.021 352.267 208.972C352.716 210.496 353.168 212.028 353.618 213.567C356.502 223.422 359.322 233.712 360.208 243.37C361.103 253.129 360.143 263.367 354.365 272.425C348.549 281.541 338.869 287.887 325.576 291.945C312.376 295.975 294.845 298 272 298C248.815 298 230.865 294.569 217.68 287.525C204.049 280.243 196.041 269.361 192.753 256.187C189.59 243.516 190.949 229.399 194.341 215.265C197.759 201.028 203.473 185.862 209.892 170.722C214.521 159.804 219.451 149.005 224.281 138.428C233.188 118.92 241.751 100.166 247.441 82.807C251.766 69.612 253.967 58.4451 253.52 49.5311C253.091 40.993 250.307 35.102 244.886 30.9128C231.769 20.7773 209.151 17.9349 180.806 22.6311C152.989 27.24 121.985 38.7558 94.5011 54.1056C66.8932 69.5246 43.7974 88.274 30.9821 106.747C24.6077 115.935 21.1329 124.54 20.4294 132.257ZM57.9171 172.136C64.598 173.556 71.88 174.139 79.6029 173.941C102.207 173.361 126.666 166.046 145.675 155.923C155.159 150.873 162.919 145.317 168.307 139.901C173.873 134.305 175.965 129.825 176.253 126.945C176.447 124.997 176.013 122.346 171.38 118.985C166.296 115.297 156.941 111.501 141.331 108.86C117.077 104.755 100.202 108.411 88.356 115.772C76.4414 123.175 68.2655 135.166 63.0839 150.27C60.7258 157.144 59.0409 164.515 57.9171 172.136Z" fill="black"/>
</svg>
